<svg width="82" height="27" viewBox="0 0 82 27" fill="none" xmlns="http://www.w3.org/2000/svg">
<path d="M27.2568 16.042C27.2568 16.8173 27.8849 17.446 28.6602 17.4463H54.5127V24.7646C54.5127 25.5401 53.8839 26.1689 53.1084 26.1689H8.72266C3.90528 26.1687 7.98866e-05 22.2637 0 17.4463C0 12.6288 3.90523 8.72288 8.72266 8.72266H27.2568V16.042ZM73.0459 0C77.8634 0 81.7693 3.90523 81.7695 8.72266C81.7695 13.5403 77.8635 17.4463 73.0459 17.4463H54.5127V10.127C54.5126 9.35159 53.8838 8.72266 53.1084 8.72266H27.2568V1.4043C27.2568 0.628985 27.8849 0.000259264 28.6602 0H73.0459Z" fill="#FF009F"/>
<path d="M29.56 0C28.2878 0 27.2566 0.330038 27.2566 0.737161L27.2566 8.72307H52.2096C53.4818 8.72307 54.513 9.05311 54.513 9.46024L54.513 17.4461C69.5663 17.4461 81.7694 13.5407 81.7694 8.72307C81.7694 3.90545 69.5663 0 54.513 0H29.56Z" fill="url(#paint0_linear_206_161)"/>
<defs>
<linearGradient id="paint0_linear_206_161" x1="27.2566" y1="0" x2="53.3969" y2="43.2984" gradientUnits="userSpaceOnUse">
<stop stop-color="#F493CE"/>
<stop offset="0.432692" stop-color="#FA4AB6"/>
<stop offset="0.658654" stop-color="#F767C0"/>
<stop offset="1" stop-color="#F493CE"/>
</linearGradient>
</defs>
</svg>
